{  "asset": {    "version": "2.0",    "generator": "THREE.GLTFExporter r167"  },  "scenes": [    {      "name": "AuxScene",      "nodes": [        9      ]    }  ],  "scene": 0,  "nodes": [    {      "mesh": 0    },    {      "mesh": 1    },    {      "mesh": 2    },    {      "mesh": 3    },    {      "mesh": 4    },    {      "mesh": 5    },    {      "mesh": 6    },    {      "mesh": 7    },    {      "mesh": 8    },    {      "children": [        0,        1,        2,        3,        4,        5,        6,        7,        8      ]    }  ],  "bufferViews": [    {      "buffer": 0,      "byteOffset": 0,      "byteLength": 104256,      "target": 34962,      "byteStride": 12    },    {      "buffer": 0,      "byteOffset": 104256,      "byteLength": 104256,      "target": 34962,      "byteStride": 12    },    {      "buffer": 0,      "byteOffset": 208512,      "byteLength": 85680,      "target": 34962,      "byteStride": 12    },    {      "buffer": 0,      "byteOffset": 294192,      "byteLength": 85680,      "target": 34962,      "byteStride": 12    },    {      "buffer": 0,      "byteOffset": 379872,      "byteLength": 60336,      "target": 34962,      "byteStride": 12    },    {      "buffer": 0,      "byteOffset": 440208,      "byteLength": 60336,      "target": 34962,      "byteStride": 12    },    {      "buffer": 0,      "byteOffset": 500544,      "byteLength": 48528,      "target": 34962,      "byteStride": 12    },    {      "buffer": 0,      "byteOffset": 549072,      "byteLength": 48528,      "target": 34962,      "byteStride": 12    },    {      "buffer": 0,      "byteOffset": 597600,      "byteLength": 45360,      "target": 34962,      "byteStride": 12    },    {      "buffer": 0,      "byteOffset": 642960,      "byteLength": 45360,      "target": 34962,      "byteStride": 12    },    {      "buffer": 0,      "byteOffset": 688320,      "byteLength": 75888,      "target": 34962,      "byteStride": 12    },    {      "buffer": 0,      "byteOffset": 764208,      "byteLength": 75888,      "target": 34962,      "byteStride": 12    },    {      "buffer": 0,      "byteOffset": 840096,      "byteLength": 69552,      "target": 34962,      "byteStride": 12    },    {      "buffer": 0,      "byteOffset": 909648,      "byteLength": 69552,      "target": 34962,      "byteStride": 12    },    {      "buffer": 0,      "byteOffset": 979200,      "byteLength": 13392,      "target": 34962,      "byteStride": 12    },    {      "buffer": 0,      "byteOffset": 992592,      "byteLength": 13392,      "target": 34962,      "byteStride": 12    },    {      "buffer": 0,      "byteOffset": 1005984,      "byteLength": 8352,      "target": 34962,      "byteStride": 12    },    {      "buffer": 0,      "byteOffset": 1014336,      "byteLength": 8352,      "target": 34962,      "byteStride": 12    }  ],  "buffers": [    {      "byteLength": 1022688,      "uri": "data:application/octet-stream;base64,"    }  ],  "accessors": [    {      "bufferView": 0,      "componentType": 5126,      "count": 8688,      "max": [        44.19510269165039,        6.564180374145508,        1.6133060455322266      ],      "min": [        28.109786987304688,        -11.380096435546875,        -1.6133060455322266      ],      "type": "VEC3"    },    {      "bufferView": 1,      "componentType": 5126,      "count": 8688,      "max": [        1,        0.999969482421875,        1      ],      "min": [        -0.999969482421875,        -0.999969482421875,        -1      ],      "type": "VEC3"    },    {      "bufferView": 2,      "componentType": 5126,      "count": 7140,      "max": [        -12.544732093811035,        6.59221076965332,        1.6133060455322266      ],      "min": [        -28.20789337158203,        -8.937074661254883,        -1.6133060455322266      ],      "type": "VEC3"    },    {      "bufferView": 3,      "componentType": 5126,      "count": 7140,      "max": [        1,        1,        1      ],      "min": [        -1,        -1,        -1      ],      "type": "VEC3"    },    {      "bufferView": 4,      "componentType": 5126,      "count": 5028,      "max": [        10.211752891540527,        6.305495738983154,        1.6133060455322266      ],      "min": [        -3.284018039703369,        -8.96485710144043,        -1.6133060455322266      ],      "type": "VEC3"    },    {      "bufferView": 5,      "componentType": 5126,      "count": 5028,      "max": [        1,        1,        1      ],      "min": [        -1,        -0.999969482421875,        -1      ],      "type": "VEC3"    },    {      "bufferView": 6,      "componentType": 5126,      "count": 4044,      "max": [        26.752151489257812,        6.38901948928833,        1.6133060455322266      ],      "min": [        11.605499267578125,        -8.944478034973145,        -1.6133060455322266      ],      "type": "VEC3"    },    {      "bufferView": 7,      "componentType": 5126,      "count": 4044,      "max": [        0.999298095703125,        1,        1      ],      "min": [        -0.999359130859375,        -1,        -1      ],      "type": "VEC3"    },    {      "bufferView": 8,      "componentType": 5126,      "count": 3780,      "max": [        -46.31650161743164,        6.327031135559082,        1.6133060455322266      ],      "min": [        -57.304134368896484,        -8.691262245178223,        -1.6133060455322266      ],      "type": "VEC3"    },    {      "bufferView": 9,      "componentType": 5126,      "count": 3780,      "max": [        1,        1,        1      ],      "min": [        -1,        -1,        -1      ],      "type": "VEC3"    },    {      "bufferView": 10,      "componentType": 5126,      "count": 6324,      "max": [        57.30412673950195,        6.579278469085693,        1.6133060455322266      ],      "min": [        45.9878044128418,        -8.972428321838379,        -1.6133060455322266      ],      "type": "VEC3"    },    {      "bufferView": 11,      "componentType": 5126,      "count": 6324,      "max": [        0.999969482421875,        1,        1      ],      "min": [        -1,        -1,        -1      ],      "type": "VEC3"    },    {      "bufferView": 12,      "componentType": 5126,      "count": 5796,      "max": [        -30.453933715820312,        6.593328475952148,        1.6133060455322266      ],      "min": [        -44.06292724609375,        -8.957618713378906,        -1.6133060455322266      ],      "type": "VEC3"    },    {      "bufferView": 13,      "componentType": 5126,      "count": 5796,      "max": [        0.999908447265625,        0.999969482421875,        1      ],      "min": [        -0.99993896484375,        -0.9998779296875,        -1      ],      "type": "VEC3"    },    {      "bufferView": 14,      "componentType": 5126,      "count": 1116,      "max": [        -5.8788347244262695,        -0.42311689257621765,        1.6133060455322266      ],      "min": [        -9.975860595703125,        -2.909397840499878,        -1.6133060455322266      ],      "type": "VEC3"    },    {      "bufferView": 15,      "componentType": 5126,      "count": 1116,      "max": [        0.99981689453125,        1,        1      ],      "min": [        -1,        -1,        -1      ],      "type": "VEC3"    },    {      "bufferView": 16,      "componentType": 5126,      "count": 696,      "max": [        -49.51533126831055,        11.380096435546875,        1.6133060455322266      ],      "min": [        -53.600181579589844,        7.36321496963501,        -1.6133060455322266      ],      "type": "VEC3"    },    {      "bufferView": 17,      "componentType": 5126,      "count": 696,      "max": [        0.99908447265625,        0.9971618056297302,        1      ],      "min": [        -0.9916074275970459,        -0.9904477000236511,        -1      ],      "type": "VEC3"    }  ],  "materials": [    {      "pbrMetallicRoughness": {        "baseColorFactor": [          0.033104766565152086,          0.158960835050774,          0.05286064701616472,          1        ],        "metallicFactor": 0.5,        "roughnessFactor": 0.5      },      "doubleSided": true    }  ],  "meshes": [    {      "primitives": [        {          "mode": 4,          "attributes": {            "POSITION": 0,            "NORMAL": 1          },          "material": 0        }      ]    },    {      "primitives": [        {          "mode": 4,          "attributes": {            "POSITION": 2,            "NORMAL": 3          },          "material": 0        }      ]    },    {      "primitives": [        {          "mode": 4,          "attributes": {            "POSITION": 4,            "NORMAL": 5          },          "material": 0        }      ]    },    {      "primitives": [        {          "mode": 4,          "attributes": {            "POSITION": 6,            "NORMAL": 7          },          "material": 0        }      ]    },    {      "primitives": [        {          "mode": 4,          "attributes": {            "POSITION": 8,            "NORMAL": 9          },          "material": 0        }      ]    },    {      "primitives": [        {          "mode": 4,          "attributes": {            "POSITION": 10,            "NORMAL": 11          },          "material": 0        }      ]    },    {      "primitives": [        {          "mode": 4,          "attributes": {            "POSITION": 12,            "NORMAL": 13          },          "material": 0        }      ]    },    {      "primitives": [        {          "mode": 4,          "attributes": {            "POSITION": 14,            "NORMAL": 15          },          "material": 0        }      ]    },    {      "primitives": [        {          "mode": 4,          "attributes": {            "POSITION": 16,            "NORMAL": 17          },          "material": 0        }      ]    }  ]}